<svg width="45.409119" height="35.772766" viewBox="0 0 45.4091 35.7728" fill="none" xmlns="http://www.w3.org/2000/svg" xmlns:xlink="http://www.w3.org/1999/xlink">
	<desc>
			Created with Pixso.
	</desc>
	<defs/>
	<circle id="Ellipse 59" cx="28.909119" cy="19.272766" r="16.500000" fill="#35736E" fill-opacity="0.200000"/>
	<path id="Vector" d="M26.06 26.77C24.12 26.77 22.54 25.19 22.54 23.25C22.54 21.3 24.12 19.72 26.06 19.72C28.01 19.72 29.59 21.3 29.59 23.25C29.59 25.19 28.01 26.77 26.06 26.77Z" stroke="#000000" stroke-opacity="1.000000" stroke-width="2.818182" stroke-linejoin="round"/>
	<path id="Vector" d="M7.75 26.77C5.8 26.77 4.22 25.19 4.22 23.25C4.22 21.3 5.8 19.72 7.75 19.72C9.69 19.72 11.27 21.3 11.27 23.25C11.27 25.19 9.69 26.77 7.75 26.77Z" stroke="#000000" stroke-opacity="1.000000" stroke-width="2.818182" stroke-linejoin="round"/>
	<path id="Vector" d="M28.18 8.45L32.4 12.68L32.4 19.72L22.54 19.72L22.54 8.45L28.18 8.45Z" stroke="#000000" stroke-opacity="1.000000" stroke-width="2.818182" stroke-linejoin="round"/>
	<path id="Vector" d="M22.54 1.4L22.54 19.72L1.4 19.72L1.4 1.4L22.54 1.4Z" stroke="#000000" stroke-opacity="1.000000" stroke-width="2.818182" stroke-linejoin="round"/>
</svg>
