<svg width="44.333344" height="37.333313" viewBox="0 0 44.3333 37.3333" fill="none" xmlns="http://www.w3.org/2000/svg" xmlns:xlink="http://www.w3.org/1999/xlink">
	<desc>
			Created with Pixso.
	</desc>
	<defs/>
	<circle id="Ellipse 60" cx="27.833344" cy="20.833313" r="16.500000" fill="#35736E" fill-opacity="0.200000"/>
	<path id="Vector" d="M1.33 6.66L1.33 25.33C1.33 26.04 1.61 26.71 2.11 27.21C2.61 27.71 3.29 28 4 28L22.66 28C23.37 28 24.05 27.71 24.55 27.21C25.05 26.71 25.33 26.04 25.33 25.33L25.33 6.66L21.33 1.33L5.33 1.33L1.33 6.66Z" stroke="#000000" stroke-opacity="1.000000" stroke-width="2.666667" stroke-linejoin="round"/>
	<path id="Vector" d="M18.66 11.99C18.66 13.41 18.1 14.77 17.1 15.77C16.1 16.77 14.74 17.33 13.33 17.33C11.91 17.33 10.56 16.77 9.56 15.77C8.56 14.77 8 13.41 8 11.99" stroke="#000000" stroke-opacity="1.000000" stroke-width="2.666667" stroke-linejoin="round" stroke-linecap="round"/>
	<path id="Vector" d="M1.33 6.66L25.33 6.66" stroke="#000000" stroke-opacity="1.000000" stroke-width="2.666667" stroke-linejoin="round" stroke-linecap="round"/>
</svg>
