<svg width="45.000000" height="33.000000" viewBox="0 0 45 33" fill="none" xmlns="http://www.w3.org/2000/svg" xmlns:xlink="http://www.w3.org/1999/xlink">
	<desc>
			Created with Pixso.
	</desc>
	<defs/>
	<circle id="Ellipse 62" cx="28.500000" cy="16.500000" r="16.500000" fill="#35736E" fill-opacity="0.200000"/>
	<path id="Vector" d="M14.5 29C7.04 29 1 22.95 1 15.5C1 8.04 7.04 2 14.5 2C21.95 2 28 8.04 28 15.5C28 22.95 21.95 29 14.5 29Z" stroke="#000000" stroke-opacity="1.000000" stroke-width="2.000000" stroke-linejoin="round"/>
	<path id="Vector" d="M14.5 20.9C11.51 20.9 9.09 18.48 9.09 15.5C9.09 12.51 11.51 10.1 14.5 10.1C17.48 10.1 19.9 12.51 19.9 15.5C19.9 18.48 17.48 20.9 14.5 20.9Z" stroke="#000000" stroke-opacity="1.000000" stroke-width="2.000000" stroke-linejoin="round"/>
	<path id="Vector" d="M18.32 19.32L24.04 25.04" stroke="#000000" stroke-opacity="1.000000" stroke-width="2.000000" stroke-linejoin="round" stroke-linecap="round"/>
	<path id="Vector" d="M4.95 25.04L10.67 19.32" stroke="#000000" stroke-opacity="1.000000" stroke-width="2.000000" stroke-linejoin="round" stroke-linecap="round"/>
	<path id="Vector" d="M18.32 11.67L24.04 5.95" stroke="#000000" stroke-opacity="1.000000" stroke-width="2.000000" stroke-linejoin="round" stroke-linecap="round"/>
	<path id="Vector" d="M18.32 11.67L23.08 6.91" stroke="#000000" stroke-opacity="1.000000" stroke-width="2.000000" stroke-linejoin="round" stroke-linecap="round"/>
	<path id="Vector" d="M4.95 5.95L10.67 11.67" stroke="#000000" stroke-opacity="1.000000" stroke-width="2.000000" stroke-linejoin="round" stroke-linecap="round"/>
</svg>
