<svg width="22.000000" height="25.757446" viewBox="0 0 22 25.7574" fill="none" xmlns="http://www.w3.org/2000/svg" xmlns:xlink="http://www.w3.org/1999/xlink">
	<desc>
			Created with Pixso.
	</desc>
	<defs>
		<clipPath id="clip2_13923">
			<rect id="envelope-regular 1" rx="0.000000" width="21.000000" height="24.757463" transform="translate(0.500000 0.500000)" fill="white" fill-opacity="0"/>
		</clipPath>
	</defs>
	<rect id="envelope-regular 1" rx="0.000000" width="21.000000" height="24.757463" transform="translate(0.500000 0.500000)" fill="#FFFFFF" fill-opacity="1.000000"/>
	<g clip-path="url(#clip2_13923)">
		<path id="Vector" d="M0 6.43C0 4.66 1.23 3.21 2.75 3.21L19.25 3.21C20.76 3.21 22 4.66 22 6.43L22 19.31C22 21.09 20.76 22.53 19.25 22.53L2.75 22.53C1.23 22.53 0 21.09 0 19.31L0 6.43ZM2.06 6.43L2.06 7.55L9.47 14.67C10.35 15.53 11.64 15.53 12.52 14.67L19.93 7.55L19.93 6.39C19.93 5.99 19.62 5.58 19.25 5.58L2.75 5.58C2.37 5.58 2.06 5.99 2.06 6.39L2.06 6.43ZM2.06 10.67L2.06 19.31C2.06 19.76 2.37 20.12 2.75 20.12L19.25 20.12C19.62 20.12 19.93 19.76 19.93 19.31L19.93 10.67L13.83 16.54C12.18 18.12 9.81 18.12 8.12 16.54L2.06 10.67Z" fill="#CFCFCF" fill-opacity="1.000000" fill-rule="nonzero"/>
	</g>
</svg>
