<svg width="16.000000" height="18.000000" viewBox="0 0 16 18" fill="none" xmlns="http://www.w3.org/2000/svg" xmlns:xlink="http://www.w3.org/1999/xlink">
	<desc>
			Created with Pixso.
	</desc>
	<defs>
		<clipPath id="clip2_13957">
			<rect id="instagram 1" rx="0.000000" width="15.000000" height="17.000000" transform="translate(0.500000 0.500000)" fill="white" fill-opacity="0"/>
		</clipPath>
	</defs>
	<rect id="instagram 1" rx="0.000000" width="15.000000" height="17.000000" transform="translate(0.500000 0.500000)" fill="#FFFFFF" fill-opacity="0"/>
	<g clip-path="url(#clip2_13957)">
		<path id="Vector" d="M8 4.95C5.73 4.95 3.89 6.76 3.89 8.99C3.89 11.23 5.73 13.03 8 13.03C10.27 13.03 12.1 11.23 12.1 8.99C12.1 6.76 10.27 4.95 8 4.95ZM8 11.62C6.53 11.62 5.33 10.44 5.33 8.99C5.33 7.54 6.53 6.37 8 6.37C9.47 6.37 10.67 7.54 10.67 8.99C10.67 10.44 9.47 11.62 8 11.62ZM13.23 4.79C13.23 5.31 12.8 5.73 12.27 5.73C11.74 5.73 11.31 5.31 11.31 4.79C11.31 4.27 11.74 3.84 12.27 3.84C12.8 3.84 13.23 4.27 13.23 4.79ZM15.95 5.74C15.88 4.48 15.59 3.36 14.65 2.44C13.72 1.52 12.58 1.23 11.3 1.17C9.98 1.1 6.02 1.1 4.69 1.17C3.42 1.23 2.28 1.52 1.34 2.44C0.4 3.36 0.11 4.48 0.05 5.74C-0.03 7.04 -0.03 10.94 0.05 12.24C0.11 13.5 0.4 14.62 1.34 15.54C2.28 16.46 3.41 16.75 4.69 16.81C6.02 16.89 9.98 16.89 11.3 16.81C12.58 16.75 13.72 16.47 14.65 15.54C15.59 14.62 15.88 13.5 15.95 12.24C16.02 10.94 16.02 7.04 15.95 5.74ZM14.24 13.64C13.96 14.32 13.42 14.86 12.72 15.13C11.66 15.54 9.16 15.45 8 15.45C6.83 15.45 4.33 15.54 3.28 15.13C2.58 14.86 2.04 14.33 1.76 13.64C1.34 12.6 1.44 10.14 1.44 8.99C1.44 7.85 1.35 5.38 1.76 4.35C2.04 3.66 2.58 3.13 3.28 2.85C4.33 2.44 6.83 2.53 8 2.53C9.16 2.53 11.67 2.44 12.72 2.85C13.42 3.12 13.96 3.65 14.24 4.35C14.66 5.38 14.56 7.85 14.56 8.99C14.56 10.14 14.66 12.6 14.24 13.64Z" fill="#000000" fill-opacity="1.000000" fill-rule="nonzero"/>
	</g>
</svg>
