<svg width="14.000000" height="16.000000" viewBox="0 0 14 16" fill="none" xmlns="http://www.w3.org/2000/svg" xmlns:xlink="http://www.w3.org/1999/xlink">
	<desc>
			Created with Pixso.
	</desc>
	<defs>
		<clipPath id="clip2_13953">
			<rect id="linkedin-in 1" rx="0.000000" width="13.000000" height="15.000000" transform="translate(0.500000 0.500000)" fill="white" fill-opacity="0"/>
		</clipPath>
	</defs>
	<rect id="linkedin-in 1" rx="0.000000" width="13.000000" height="15.000000" transform="translate(0.500000 0.500000)" fill="#FFFFFF" fill-opacity="0"/>
	<g clip-path="url(#clip2_13953)">
		<path id="Vector" d="M3.13 14L0.23 14L0.23 4.65L3.13 4.65L3.13 14ZM1.68 3.37C0.75 3.37 0 2.6 0 1.68C0 1.23 0.17 0.8 0.49 0.49C0.8 0.17 1.23 0 1.68 0C2.12 0 2.55 0.17 2.86 0.49C3.18 0.8 3.36 1.23 3.36 1.68C3.36 2.6 2.6 3.37 1.68 3.37ZM13.99 14L11.1 14L11.1 9.45C11.1 8.36 11.07 6.97 9.59 6.97C8.08 6.97 7.85 8.15 7.85 9.37L7.85 14L4.95 14L4.95 4.65L7.73 4.65L7.73 5.92L7.77 5.92C8.16 5.19 9.11 4.41 10.52 4.41C13.46 4.41 14 6.35 14 8.86L14 14L13.99 14Z" fill="#000000" fill-opacity="1.000000" fill-rule="nonzero"/>
	</g>
</svg>
