<svg width="29.000000" height="27.665405" viewBox="0 0 29 27.6654" fill="none" xmlns="http://www.w3.org/2000/svg" xmlns:xlink="http://www.w3.org/1999/xlink">
	<desc>
			Created with Pixso.
	</desc>
	<defs>
		<clipPath id="clip2_13933">
			<rect id="paper-plane-solid 1" rx="0.000000" width="28.000000" height="26.665422" transform="translate(0.500000 0.500000)" fill="white" fill-opacity="0"/>
		</clipPath>
	</defs>
	<rect id="paper-plane-solid 1" rx="0.000000" width="28.000000" height="26.665422" transform="translate(0.500000 0.500000)" fill="#FFFFFF" fill-opacity="0"/>
	<g clip-path="url(#clip2_13933)">
		<path id="Vector" d="M28.21 0.3C28.78 0.68 29.08 1.33 28.97 1.98L25.35 24.46C25.26 24.99 24.93 25.45 24.44 25.7C23.95 25.96 23.37 26 22.86 25.79L15.7 22.95L13.43 26.98C13.14 27.5 12.51 27.77 11.9 27.62C11.3 27.48 10.87 26.96 10.87 26.36L10.87 21.18C10.87 20.89 10.97 20.61 11.16 20.38L20.52 8.89C20.66 8.51 20.15 8.12 19.79 8.44L9.65 17.19L7.83 18.75C7.31 19.2 6.57 19.32 5.92 19.06L1.11 17.15C0.47 16.9 0.04 16.32 0 15.67C-0.04 15.01 0.31 14.38 0.91 14.05L26.29 0.22C26.89 -0.11 27.64 -0.08 28.21 0.3L28.21 0.3Z" fill="#FFFFFF" fill-opacity="1.000000" fill-rule="nonzero"/>
	</g>
</svg>
