<svg width="17.000000" height="17.000000" viewBox="0 0 17 17" fill="none" xmlns="http://www.w3.org/2000/svg" xmlns:xlink="http://www.w3.org/1999/xlink">
	<desc>
			Created with Pixso.
	</desc>
	<defs>
		<clipPath id="clip2_13955">
			<rect id="twitter 1" rx="0.000000" width="16.000000" height="16.000000" transform="translate(0.500000 0.500000)" fill="white" fill-opacity="0"/>
		</clipPath>
	</defs>
	<rect id="twitter 1" rx="0.000000" width="16.000000" height="16.000000" transform="translate(0.500000 0.500000)" fill="#FFFFFF" fill-opacity="0"/>
	<g clip-path="url(#clip2_13955)">
		<path id="Vector" d="M15.25 5.03C15.26 5.18 15.26 5.33 15.26 5.49C15.26 10.09 11.75 15.4 5.35 15.4C3.37 15.4 1.54 14.83 0 13.83C0.28 13.87 0.55 13.88 0.84 13.88C2.47 13.88 3.96 13.33 5.16 12.39C3.63 12.36 2.35 11.35 1.9 9.97C2.12 10.01 2.34 10.03 2.56 10.03C2.88 10.03 3.19 9.98 3.48 9.91C1.88 9.58 0.69 8.18 0.69 6.49L0.69 6.45C1.15 6.7 1.69 6.87 2.26 6.89C1.32 6.26 0.71 5.19 0.71 3.99C0.71 3.34 0.88 2.75 1.18 2.23C2.9 4.34 5.47 5.72 8.37 5.87C8.31 5.62 8.28 5.35 8.28 5.08C8.28 3.16 9.83 1.59 11.76 1.59C12.77 1.59 13.67 2.01 14.31 2.69C15.1 2.54 15.85 2.25 16.52 1.85C16.26 2.66 15.71 3.34 14.99 3.77C15.69 3.7 16.37 3.5 16.99 3.23C16.52 3.92 15.93 4.54 15.25 5.03Z" fill="#000000" fill-opacity="1.000000" fill-rule="nonzero"/>
	</g>
</svg>
